<svg width="32" height="32" viewBox="0 0 32 32" fill="none" xmlns="http://www.w3.org/2000/svg">
<rect width="32" height="32" fill="#121626"/>
<path d="M0 16L32 0V16L0 32V16Z" fill="#5F7CFF" fill-opacity="0.05"/>
<path d="M21.364 23.114C20.1924 24.2855 18.2929 24.2855 17.1213 23.114C15.9498 21.9424 15.9498 20.0429 17.1213 18.8713C18.2929 17.6997 20.1924 17.6997 21.364 18.8713L21.8626 19.37M21.8626 19.37V17.87M21.8626 19.37L20.3626 19.37" stroke="white" stroke-width="1.5" stroke-linecap="round"/>
<path d="M15.4434 8.83333L21.2169 12.1667M15.4434 8.83333L10.9434 16.6276M15.4434 8.83333L14 8M21.2169 12.1667L22.6603 13M21.2169 12.1667L19.5876 15M10.9434 16.6276L9.5 15.7942M10.9434 16.6276L13.8301 18.2942L10.5801 23.9234" stroke="#5F7DFF" stroke-width="1.5" stroke-linecap="round" stroke-linejoin="round"/>
</svg>
