<svg width="32" height="32" viewBox="0 0 32 32" fill="none" xmlns="http://www.w3.org/2000/svg">
<rect width="32" height="32" fill="#142612"/>
<path d="M0 16L32 0V16L0 32V16Z" fill="#5FD554" fill-opacity="0.0333"/>
<path d="M24 17.5V12C24 9.79086 22.2091 8 20 8H12C9.79086 8 8 9.79086 8 12V20C8 22.2091 9.79086 24 12 24H17" stroke="#5FD554" stroke-width="1.5" stroke-linecap="round" stroke-linejoin="round"/>
<circle cx="16" cy="15" r="2" stroke="#5FD554" stroke-width="1.5" stroke-linecap="round"/>
<path d="M13 19C13.5849 17.8073 14.7091 17 16 17C16.7464 17 17.4371 17.2699 18 17.7281" stroke="#5FD554" stroke-width="1.5" stroke-linecap="round"/>
<path d="M21 18V21M21 24V21M18 21H21M24 21L21 21" stroke="white" stroke-width="1.5" stroke-linecap="round" stroke-linejoin="round"/>
</svg>
