<svg width="32" height="32" viewBox="0 0 32 32" fill="none" xmlns="http://www.w3.org/2000/svg">
<rect width="32" height="32" fill="#262012"/>
<path d="M0 16L32 0V16L0 32V16Z" fill="#FFC94D" fill-opacity="0.0333"/>
<path d="M19.5 23.1258L19.9022 22.4927L19.5 22.2372L19.0978 22.4927L19.5 23.1258ZM21.663 24.5L21.2608 25.133C21.5167 25.2956 21.8453 25.2881 22.0935 25.1141C22.3418 24.9401 22.4608 24.6337 22.3952 24.3377L21.663 24.5ZM21.089 21.91L20.5836 21.3558L20.2628 21.6484L20.3568 22.0723L21.089 21.91ZM23 20.1674L23.5054 20.7215C23.725 20.5212 23.8056 20.2101 23.7109 19.9283C23.6161 19.6465 23.3639 19.4473 23.0678 19.4204L23 20.1674ZM20.4835 19.9389L19.7879 20.2194L19.9593 20.6445L20.4157 20.6859L20.4835 19.9389ZM19.5 17.5L20.1956 17.2195C20.0812 16.9358 19.8059 16.75 19.5 16.75C19.1941 16.75 18.9188 16.9358 18.8044 17.2195L19.5 17.5ZM18.5165 19.9389L18.5843 20.6859L19.0407 20.6445L19.2121 20.2194L18.5165 19.9389ZM16 20.1674L15.9322 19.4204C15.6363 19.4473 15.3841 19.6464 15.2892 19.928C15.1944 20.2096 15.2747 20.5207 15.4941 20.7211L16 20.1674ZM17.9075 21.91L18.6399 22.0713L18.7331 21.6484L18.4134 21.3563L17.9075 21.91ZM17.337 24.5L16.6046 24.3387C16.5394 24.6346 16.6586 24.9406 16.9069 25.1144C17.1551 25.2882 17.4834 25.2955 17.7392 25.133L17.337 24.5ZM19.0978 23.7588L21.2608 25.133L22.0652 23.867L19.9022 22.4927L19.0978 23.7588ZM22.3952 24.3377L21.8212 21.7477L20.3568 22.0723L20.9308 24.6623L22.3952 24.3377ZM21.5944 22.4642L23.5054 20.7215L22.4946 19.6132L20.5836 21.3558L21.5944 22.4642ZM23.0678 19.4204L20.5513 19.192L20.4157 20.6859L22.9322 20.9143L23.0678 19.4204ZM21.1791 19.6585L20.1956 17.2195L18.8044 17.7805L19.7879 20.2194L21.1791 19.6585ZM18.8044 17.2195L17.8209 19.6585L19.2121 20.2194L20.1956 17.7805L18.8044 17.2195ZM18.4487 19.192L15.9322 19.4204L16.0678 20.9143L18.5843 20.6859L18.4487 19.192ZM15.4941 20.7211L17.4016 22.4637L18.4134 21.3563L16.5059 19.6136L15.4941 20.7211ZM17.1751 21.7487L16.6046 24.3387L18.0694 24.6613L18.6399 22.0713L17.1751 21.7487ZM17.7392 25.133L19.9022 23.7588L19.0978 22.4927L16.9348 23.867L17.7392 25.133Z" fill="white"/>
<path d="M15.4434 8.83333L21.2169 12.1667M15.4434 8.83333L10.9434 16.6276M15.4434 8.83333L14 8M21.2169 12.1667L22.6603 13M21.2169 12.1667L19.8697 14.5M10.9434 16.6276L9.5 15.7942M10.9434 16.6276L13.8301 18.2942L10.5801 23.9234" stroke="#FFC94D" stroke-width="1.5" stroke-linecap="round" stroke-linejoin="round"/>
</svg>
