<svg width="32" height="32" viewBox="0 0 32 32" fill="none" xmlns="http://www.w3.org/2000/svg">
<rect width="32" height="32" fill="#121D26"/>
<path d="M0 16L32 0V16L0 32V16Z" fill="#4DA9FF" fill-opacity="0.0333"/>
<path d="M14 9L11.5 23" stroke="#4DA9FF" stroke-width="1.5" stroke-linecap="round"/>
<path d="M20.5 9L19.3393 15.5" stroke="#4DA9FF" stroke-width="1.5" stroke-linecap="round"/>
<path d="M8.5 19H15.5" stroke="#4DA9FF" stroke-width="1.5" stroke-linecap="round"/>
<path d="M9.5 13H23.5" stroke="#4DA9FF" stroke-width="1.5" stroke-linecap="round"/>
<path d="M23.5986 19.5C23.0799 18.6033 22.1104 18 21 18C19.8896 18 18.9201 18.6033 18.4013 19.5M23.5986 19.5V18M23.5986 19.5H22.1M18.4013 22.5C18.9201 23.3967 19.8896 24 21 24C22.1104 24 23.0799 23.3967 23.5986 22.5M18.4013 22.5L18.4013 24M18.4013 22.5H19.9" stroke="white" stroke-width="1.5" stroke-linecap="round"/>
</svg>
